<?xml version="1.0" standalone="no"?>
<!DOCTYPE svg PUBLIC "-//W3C//DTD SVG 20010904//EN"
 "http://www.w3.org/TR/2001/REC-SVG-20010904/DTD/svg10.dtd">
<svg version="1.0" xmlns="http://www.w3.org/2000/svg"
 width="596.000000pt" height="597.000000pt" viewBox="0 0 596.000000 597.000000"
 preserveAspectRatio="xMidYMid meet">

<g transform="translate(0.000000,597.000000) scale(0.100000,-0.100000)"
fill="#000000" stroke="none">
<path d="M0 2985 l0 -2985 2980 0 2980 0 0 2985 0 2985 -2980 0 -2980 0 0
-2985z m1277 324 c15 -6 38 -20 51 -32 17 -16 37 -22 71 -23 80 -1 121 -44
121 -127 0 -36 4 -44 30 -59 37 -21 70 -74 70 -113 0 -35 -30 -89 -58 -104
-14 -7 -21 -25 -25 -63 -5 -40 -14 -59 -36 -82 -26 -26 -38 -30 -87 -30 -50
-1 -61 -5 -91 -33 -27 -26 -43 -33 -74 -33 -48 0 -90 20 -113 54 -13 21 -24
26 -59 26 -24 0 -56 8 -73 19 -36 22 -60 78 -50 116 4 16 -2 36 -19 61 -37 54
-29 124 19 163 11 9 16 31 16 68 0 49 4 59 34 89 28 28 42 34 76 34 34 0 46 6
66 30 14 16 40 34 57 39 43 12 42 12 74 0z m2927 -121 c3 -13 6 -42 6 -66 0
-39 2 -42 19 -32 32 17 96 12 124 -10 25 -20 25 -20 30 0 4 17 14 20 71 20
l66 0 0 -90 c0 -72 3 -92 15 -97 25 -9 30 3 35 95 l5 87 68 3 67 3 0 54 0 55
69 0 68 0 -5 -72 -5 -71 24 16 c29 21 100 22 138 2 16 -8 36 -30 45 -49 21
-45 21 -139 0 -176 -35 -59 -108 -76 -177 -41 -29 15 -37 16 -37 5 0 -11 -24
-14 -119 -14 -80 0 -121 4 -123 11 -3 8 -14 7 -35 -5 -51 -26 -100 -21 -134
13 l-29 29 0 -24 c0 -23 -3 -24 -65 -24 l-65 0 0 79 c0 56 -4 82 -14 90 -12
10 -18 7 -31 -13 -13 -20 -16 -42 -13 -90 l4 -63 -133 -7 c-183 -10 -213 8
-213 129 0 48 -2 55 -20 55 -11 0 -20 -5 -20 -11 0 -8 -13 -9 -41 -5 -60 10
-69 -3 -69 -90 l0 -74 -75 0 c-68 0 -75 2 -75 20 0 19 -1 19 -35 -2 -43 -25
-144 -35 -202 -19 -24 7 -52 24 -66 40 -23 28 -24 28 -36 9 -18 -29 -90 -58
-146 -58 -72 0 -120 16 -149 51 l-26 31 0 -36 0 -36 -65 0 -65 0 0 78 c0 82
-12 111 -37 91 -9 -8 -13 -37 -13 -90 l0 -79 -75 0 -75 0 0 30 0 29 -26 -24
c-72 -67 -250 -56 -299 18 l-16 25 -28 -28 c-70 -71 -266 -80 -355 -17 -85 60
-88 227 -5 301 65 60 217 73 308 27 36 -19 91 -73 91 -90 0 -4 -28 -19 -62
-33 l-63 -26 -26 25 c-16 14 -44 27 -67 30 -34 5 -44 1 -66 -20 -34 -35 -34
-79 0 -114 22 -22 32 -25 72 -20 35 4 52 12 68 32 l21 27 41 -21 c23 -12 45
-21 50 -21 5 0 12 17 16 38 12 81 72 122 175 122 75 0 138 -24 160 -61 l18
-29 -1 43 -1 42 63 3 c57 3 62 1 62 -18 l0 -21 26 20 c18 14 41 21 72 21 38 0
49 -5 77 -35 l33 -34 18 20 c32 35 70 49 138 49 74 0 110 -11 147 -46 l26 -24
19 21 c57 64 232 67 284 4 14 -17 15 -16 20 11 5 28 7 29 68 32 57 3 62 1 62
-17 l0 -21 33 20 c20 12 50 20 79 20 40 0 50 4 64 25 15 23 22 25 95 25 44 0
79 -3 79 -7 0 -3 -7 -15 -17 -25 -15 -17 -15 -18 10 -18 26 0 27 2 27 55 l0
55 69 0 c63 0 69 -2 75 -22z"/>
<path d="M1202 3254 c-28 -20 -28 -28 3 -42 21 -10 32 -9 58 4 43 22 43 22 21
39 -25 19 -54 19 -82 -1z"/>
<path d="M1386 3188 c16 -53 24 -68 36 -68 7 0 24 -3 37 -7 23 -6 24 -4 18 28
-8 40 -39 69 -74 69 -21 0 -23 -3 -17 -22z"/>
<path d="M1053 3188 c-24 -11 -45 -60 -37 -82 9 -23 61 3 67 33 3 14 9 34 12
44 8 20 -8 22 -42 5z"/>
<path d="M1302 3186 l-24 -13 24 -15 c52 -33 51 -33 44 -2 -10 40 -17 45 -44
30z"/>
<path d="M1140 3171 c0 -5 -3 -17 -7 -26 -6 -16 -4 -16 20 0 32 21 35 35 7 35
-11 0 -20 -4 -20 -9z"/>
<path d="M1135 3065 c-16 -15 -25 -36 -25 -54 l0 -30 46 14 c57 17 62 22 70
63 6 31 6 32 -30 32 -26 0 -44 -7 -61 -25z"/>
<path d="M1290 3076 c0 -34 20 -64 51 -75 41 -14 39 -14 39 7 0 20 -59 82 -78
82 -7 0 -12 -6 -12 -14z"/>
<path d="M1420 3056 c0 -21 21 -31 30 -15 5 7 6 17 4 21 -9 14 -34 9 -34 -6z"/>
<path d="M1040 3050 c-8 -5 -11 -12 -7 -16 4 -4 13 -2 19 4 15 15 7 24 -12 12z"/>
<path d="M1487 3009 c-12 -30 -11 -37 13 -81 l25 -48 23 25 c38 44 24 95 -35
129 -8 4 -17 -5 -26 -25z"/>
<path d="M962 2982 c-6 -17 -6 -36 0 -52 l10 -25 19 37 c19 38 17 68 -6 68 -7
0 -17 -12 -23 -28z"/>
<path d="M1239 2980 c-16 -17 -15 -19 4 -38 l20 -21 17 21 c16 20 16 22 -2 40
-21 21 -19 21 -39 -2z"/>
<path d="M1110 2927 c0 -26 80 -107 105 -107 23 0 23 1 11 43 -12 43 -31 58
-88 72 -21 5 -28 3 -28 -8z"/>
<path d="M1022 2905 c-10 -22 -9 -26 18 -40 l29 -15 -10 32 c-13 45 -24 52
-37 23z"/>
<path d="M1331 2917 c-14 -7 -30 -29 -37 -50 l-13 -38 24 19 c13 10 36 33 50
50 28 34 19 41 -24 19z"/>
<path d="M1432 2918 c-13 -13 -17 -78 -4 -78 4 1 17 6 29 13 21 12 21 13 4 45
-13 25 -19 30 -29 20z"/>
<path d="M1000 2802 c0 -15 4 -32 8 -38 11 -17 48 -34 72 -34 17 0 20 4 15 18
-4 9 -9 24 -12 33 -3 9 -22 24 -44 32 l-39 15 0 -26z"/>
<path d="M1438 2797 c-20 -6 -39 -17 -41 -26 -3 -9 -8 -24 -12 -33 -6 -15 -2
-18 29 -18 43 0 76 28 76 65 0 14 -3 24 -7 24 -5 -1 -25 -6 -45 -12z"/>
<path d="M1137 2764 c3 -8 12 -13 20 -10 8 3 17 6 19 6 2 0 4 5 4 10 0 6 -11
10 -25 10 -18 0 -23 -4 -18 -16z"/>
<path d="M1292 2772 c-9 -6 -5 -12 14 -21 27 -12 43 -4 44 22 0 9 -42 9 -58
-1z"/>
<path d="M1193 2720 c-30 -12 -29 -24 6 -49 37 -26 52 -26 86 1 l27 21 -33 18
c-38 20 -54 22 -86 9z"/>
<path d="M3380 3000 c-11 -7 -4 -10 25 -10 29 0 36 3 25 10 -8 5 -19 10 -25
10 -5 0 -17 -5 -25 -10z"/>
<path d="M2365 2976 c-29 -43 11 -84 63 -65 29 11 31 64 3 79 -31 16 -49 12
-66 -14z"/>
<path d="M3035 2976 c-13 -19 -14 -29 -5 -45 12 -23 58 -29 77 -10 9 9 57 2
106 -17 9 -3 11 10 9 46 -2 27 -5 50 -6 50 -1 0 -24 -7 -50 -16 -43 -15 -48
-15 -65 0 -25 23 -48 20 -66 -8z"/>
<path d="M3994 2958 c8 -39 23 -58 47 -58 16 0 19 8 19 45 l0 45 -36 0 c-36 0
-36 -1 -30 -32z"/>
<path d="M4851 2971 c-13 -23 -5 -48 19 -61 27 -14 52 10 48 45 -2 24 -8 31
-30 33 -18 2 -30 -3 -37 -17z"/>
<path d="M3370 2915 c16 -19 51 -19 76 0 17 13 15 14 -35 15 -46 0 -52 -2 -41
-15z"/>
<path d="M3520 2915 c33 -19 50 -19 50 0 0 11 -11 15 -37 15 l-38 -1 25 -14z"/>
</g>
</svg>
